<?xml version="1.0" encoding="utf-8"?>
<!-- Generator: Adobe Illustrator 16.0.0, SVG Export Plug-In . SVG Version: 6.00 Build 0)  -->
<!DOCTYPE svg PUBLIC "-//W3C//DTD SVG 1.1//EN" "http://www.w3.org/Graphics/SVG/1.1/DTD/svg11.dtd">
<svg version="1.1" id="Layer_1" xmlns="http://www.w3.org/2000/svg" xmlns:xlink="http://www.w3.org/1999/xlink" x="0px" y="0px"
	 width="32px" height="32px" viewBox="0 0 32 32" enable-background="new 0 0 32 32" xml:space="preserve">
<g>
	<rect x="13.234" y="6.112" fill="#B90D01" width="5.393" height="6.921"/>
	<polygon fill="#B90D01" points="10.595,4 21.268,4 22.629,4.583 22.629,6.001 21.268,6.641 10.595,6.641 9.26,5.862 9.26,4.417 	
		"/>
	<polygon fill="#B90D01" points="14.666,16.032 15.458,15.118 16.417,15.118 17.209,16.032 21.294,23.956 25.339,23.956 
		18.627,13.033 15.93,12.797 13.234,13.033 6.661,23.956 10.58,23.956 	"/>
	<polygon fill="#B90D01" points="11.873,24.623 19.919,24.623 21.294,23.956 23.326,23.355 25.339,23.956 25.339,25.332 22.629,28 
		9.26,28 6.661,25.29 6.661,23.956 8.631,23.688 10.58,23.956 	"/>
</g>
</svg>
