<?xml version="1.0" encoding="utf-8"?>
<!-- Generator: Adobe Illustrator 16.0.0, SVG Export Plug-In . SVG Version: 6.00 Build 0)  -->
<!DOCTYPE svg PUBLIC "-//W3C//DTD SVG 1.1//EN" "http://www.w3.org/Graphics/SVG/1.1/DTD/svg11.dtd">
<svg version="1.1" id="Layer_1" xmlns="http://www.w3.org/2000/svg" xmlns:xlink="http://www.w3.org/1999/xlink" x="0px" y="0px"
	 width="32px" height="32px" viewBox="0 0 32 32" enable-background="new 0 0 32 32" xml:space="preserve">
<g>
	<g>
		<path fill="#4A4A4A" stroke="#4A4A4A" stroke-width="2" stroke-miterlimit="10" d="M22.797,14.941
			c-2.316,0-4.201-1.885-4.201-4.203c0-2.318,1.885-4.203,4.201-4.203C25.115,6.535,27,8.42,27,10.738
			C27,13.056,25.115,14.941,22.797,14.941z M22.797,7.936c-1.544,0-2.801,1.258-2.801,2.803c0,1.544,1.257,2.801,2.801,2.801
			c1.545,0,2.803-1.257,2.803-2.801C25.6,9.193,24.342,7.936,22.797,7.936z"/>
	</g>
	<g>
		<path fill="#4A4A4A" stroke="#4A4A4A" stroke-width="2" stroke-miterlimit="10" d="M13.406,14.941H5V6.535h8.406V14.941z
			 M6.401,13.54h5.604V7.936H6.401V13.54z"/>
	</g>
	<g>
		<path fill="#4A4A4A" stroke="#4A4A4A" stroke-width="2" stroke-miterlimit="10" d="M22.797,25.465
			c-2.316,0-4.201-1.886-4.201-4.203c0-2.316,1.885-4.201,4.201-4.201c2.318,0,4.203,1.885,4.203,4.201
			C27,23.579,25.115,25.465,22.797,25.465z M22.797,18.46c-1.544,0-2.801,1.258-2.801,2.802c0,1.545,1.257,2.803,2.801,2.803
			c1.545,0,2.803-1.258,2.803-2.803C25.6,19.718,24.342,18.46,22.797,18.46z"/>
	</g>
	<g>
		<path fill="#4A4A4A" stroke="#4A4A4A" stroke-width="2" stroke-miterlimit="10" d="M9.203,25.465C6.885,25.465,5,23.579,5,21.262
			c0-2.316,1.885-4.201,4.203-4.201c2.317,0,4.203,1.885,4.203,4.201C13.406,23.579,11.52,25.465,9.203,25.465z M9.203,18.46
			c-1.544,0-2.802,1.258-2.802,2.802c0,1.545,1.258,2.803,2.802,2.803s2.801-1.258,2.801-2.803
			C12.004,19.718,10.747,18.46,9.203,18.46z"/>
	</g>
	<g>
		
			<rect x="12.705" y="20.563" fill="#4A4A4A" stroke="#4A4A4A" stroke-width="2" stroke-miterlimit="10" width="6.59" height="1.4"/>
	</g>
	<g>
		
			<rect x="12.705" y="10.038" fill="#4A4A4A" stroke="#4A4A4A" stroke-width="2" stroke-miterlimit="10" width="6.59" height="1.4"/>
	</g>
</g>
</svg>
